<?xml version="1.0" encoding="UTF-8"?>
<svg width="10px" height="10px" viewBox="0 0 10 10" version="1.1" xmlns="http://www.w3.org/2000/svg" xmlns:xlink="http://www.w3.org/1999/xlink">
    <title>Fill 1</title>
    <g id="Page-1" stroke="none" stroke-width="1" fill="none" fill-rule="evenodd">
        <g id="Page-Dossier-Complexe" transform="translate(-250.000000, -494.000000)" fill="#00EC7B">
            <g id="On-regarde" transform="translate(250.000000, 445.000000)">
                <g id="Group-6" transform="translate(0.000000, 45.000000)">
                    <g id="Group-3" transform="translate(5.000000, 9.000000) scale(-1, 1) translate(-5.000000, -9.000000) translate(0.000000, 4.000000)">
                        <path d="M9.17857653,0.0574250136 L9.17827956,0.0565528429 L0.344636323,4.32103125 C0.138538026,4.42019705 0.00400988725,4.65969511 0.00104017116,4.92980636 L0.00029774214,4.92980636 L0,4.94035963 C-0.00037044398,5.21204078 0.133415266,5.45459144 0.339587805,5.55663541 L9.20255699,9.94129893 L9.20285396,9.94033954 C9.26855893,9.97827896 9.34658822,9.99973436 9.43241301,9.99955993 L9.43241301,10 L9.43812972,10 C9.59322314,10.0006065 9.73740285,9.93109453 9.83918987,9.80872899 C9.94164508,9.68688675 9.99970303,9.51506913 10,9.32763966 L10,9.32362767 L10,9.32179611 L9.99977727,9.32179611 C9.99977727,9.18565027 9.97186194,9.05613293 9.9136555,8.94719882 C9.85544907,8.8372181 9.76843639,8.75191981 9.66568421,8.69575202 L9.6632342,8.69444376 L2.06009282,4.94498213 L9.62885973,1.30811773 L9.63160672,1.30680947 C9.73532405,1.25151385 9.82345038,1.16630278 9.88254773,1.05640928 C9.94186781,0.946777427 9.97059981,0.816213481 9.97089678,0.678759386 L9.97089678,0.675009052 L9.97089678,0.672654191 L9.97067405,0.672654191 C9.97059981,0.48635854 9.91350702,0.315325875 9.81194273,0.193483635 C9.71060117,0.0705947904 9.56664418,0.000385052942 9.41155076,0 L9.40583405,0 C9.32090017,-0.0010104201 9.24346483,0.0207066291 9.17857653,0.0574250136" id="Fill-1"></path>
                    </g>
                </g>
            </g>
        </g>
    </g>
</svg>