<?xml version="1.0" encoding="UTF-8"?>
<svg width="168px" height="25px" viewBox="0 0 168 25" version="1.1" xmlns="http://www.w3.org/2000/svg" xmlns:xlink="http://www.w3.org/1999/xlink">
    <title>LOGO/tenisu</title>
    <g id="LOGO/tenisu" stroke="none" stroke-width="1" fill="none" fill-rule="evenodd">
        <path d="M80.1082955,12.3432508 C80.1082955,11.6426522 79.5387532,11.0747907 78.8360809,11.0747907 L74.2939532,11.0747907 C73.5912809,11.0747907 73.0217386,11.6426522 73.0217386,12.3432508 C73.0217386,13.0438495 73.5912809,13.611711 74.2939532,13.611711 L78.8360809,13.611711 C79.5387532,13.611711 80.1082955,13.0438495 80.1082955,12.3432508" id="tenisu1" fill="#06326C"></path>
        <path d="M80.7531535,22.0924969 L67.8028915,22.0924969 L67.8028915,2.90675737 L80.299913,2.90675737 C81.0025853,2.90675737 81.5725016,2.33889587 81.5725016,1.63829721 L81.5725016,1.60362149 C81.5725016,0.903022828 81.0025853,0.335161328 80.299913,0.335161328 L66.2864805,0.335161328 C65.5838081,0.335161328 65.0138919,0.903022828 65.0138919,1.60362149 L65.0138919,23.3960057 C65.0138919,24.0966043 65.5838081,24.6644658 66.2864805,24.6644658 L80.7531535,24.6644658 C81.4558258,24.6644658 82.0253681,24.0966043 82.0253681,23.3960057 L82.0253681,23.3609571 C82.0253681,22.6603584 81.4558258,22.0924969 80.7531535,22.0924969" id="tenisu2" fill="#06326C"></path>
        <path d="M116.822457,5.86370969 C117.596182,5.86109131 118.221444,5.23357266 118.218834,4.46213113 L118.213591,1.66570221 C118.210973,0.893887827 117.581223,0.270470605 116.807498,0.272701746 C116.033399,0.275317749 115.407763,0.903209256 115.410373,1.67502364 L115.41973,4.50165399 C115.438802,5.25892695 116.059203,5.86631131 116.822457,5.86370969" id="tenisu3" fill="#06326C"></path>
        <path d="M118.246013,12.8985843 C118.243395,12.1271428 117.614019,11.5037256 116.840295,11.5063274 C116.079284,11.5089456 115.464867,12.1170757 115.447665,12.8713658 L115.482443,23.3341114 C115.485061,24.1059257 116.114437,24.729343 116.888536,24.7267411 C117.662634,24.724123 118.287897,24.0966043 118.285287,23.3247899 L118.246013,12.8985843 Z" id="tenisu4" fill="#06326C"></path>
        <path d="M50.3425501,7.37265436 C49.5931327,7.37265436 48.9861944,7.96065014 48.9480504,8.69853452 L48.9480504,23.2742678 C48.9480504,24.0423536 49.5721909,24.6646522 50.3425501,24.6646522 C51.1125354,24.6646522 51.736676,24.0423536 51.736676,23.2742678 L51.736676,8.69667024 C51.6974101,7.95953157 51.0912196,7.37265436 50.3425501,7.37265436" id="tenisu5" fill="#06326C"></path>
        <path d="M58.4299383,0.335012185 L42.2897908,0.335012185 C41.5773955,0.335012185 41,0.910703686 41,1.62099663 C41,2.33128958 41.5773955,2.90698108 42.2897908,2.90698108 L58.4299383,2.90698108 C59.1423336,2.90698108 59.7197291,2.33128958 59.7197291,1.62099663 C59.7197291,0.910703686 59.1423336,0.335012185 58.4299383,0.335012185" id="tenisu6" fill="#06326C"></path>
        <path d="M87.2764507,10.7796742 L87.2764507,23.2819486 C87.2764507,24.0500345 87.9013391,24.6730788 88.6716984,24.6730788 C89.4424315,24.6730788 90.06732,24.0500345 90.06732,23.2819486 L90.06732,10.7796742 C90.06732,10.4817613 89.9712121,10.1920513 89.7935807,9.95267697 L89.7935807,9.95267697 C88.9936786,8.87362826 87.2764507,9.43776119 87.2764507,10.7796742" id="tenisu7" fill="#06326C"></path>
        <path d="M104.823065,1.70041521 L104.823065,20.1169504 L90.7535381,1.11241943 C90.4038847,0.640009366 89.7961984,0.434192197 89.2300218,0.596012218 L89.2300218,0.596012218 C88.284275,0.86633368 87.8998433,1.99497239 88.484718,2.78393821 L93.8645178,10.037502 L93.8645178,10.037502 L104.148066,23.9044337 C104.506694,24.3876566 105.073992,24.6728924 105.677191,24.6728924 C106.727273,24.6728924 107.578782,23.8242694 107.578782,22.7769136 L107.578782,1.70041521 C107.578782,0.941650833 106.961746,0.326809327 106.20111,0.326809327 L106.200736,0.326809327 C105.4401,0.326809327 104.823065,0.941650833 104.823065,1.70041521" id="tenisu8" fill="#06326C"></path>
        <path d="M127.763577,4.80128203 C128.170072,4.80128203 128.571332,4.64430916 128.834601,4.33521054 C129.692093,3.32924185 131.330041,2.76212606 133.459374,2.76212606 C135.089843,2.76212606 137.149245,3.16630326 139.071029,4.11186909 C139.77445,4.4575077 140.624836,4.16854338 140.963271,3.46347044 C141.289365,2.78524321 141.02647,1.96234739 140.355959,1.61745449 C138.425573,0.62490865 136.007169,0 133.637005,0 C130.636344,0 128.217565,0.843402963 126.720974,2.31768029 C125.797665,3.22745183 126.465185,4.80128203 127.763577,4.80128203 Z" id="tenisu9" fill="#06326C"></path>
        <path d="M139.534479,19.7650851 C139.073011,19.7650851 138.635477,19.9776137 138.359494,20.3463694 C137.456379,21.5525624 135.63519,22.2375011 133.175276,22.2375011 C130.837273,22.2375011 128.252456,21.3523381 126.119758,19.7867108 C125.456725,19.3001321 124.519579,19.4951365 124.138513,20.2229537 L124.104483,20.2882037 C123.809054,20.8527095 123.962004,21.5436139 124.461241,21.9403339 C126.769701,23.7740456 129.926678,25 133.139749,25 C136.462391,25 139.135089,23.9664399 140.676181,22.1920125 C141.499269,21.2442095 140.792109,19.7650851 139.534479,19.7650851" id="tenisu10" fill="#06326C"></path>
        <path d="M139.787127,15.8447154 C137.494747,11.7406763 130.920517,11.5598406 127.39444,9.50316034" id="tenisu11" stroke="#06326C" stroke-width="2.81771277" stroke-linecap="round"></path>
        <path d="M149.95815,12.2208045 L149.95815,1.4709589 C149.95815,0.688704515 149.322042,0.0544744354 148.537473,0.0544744354 C147.752903,0.0544744354 147.116796,0.688704515 147.116796,1.4709589 L147.116796,12.2208045 C147.116796,13.0030589 147.752903,13.637289 148.537473,13.637289 C149.322042,13.637289 149.95815,13.0030589 149.95815,12.2208045" id="tenisu12" fill="#06326C"></path>
        <path d="M166.579323,0.0544371497 C165.794753,0.0544371497 165.158646,0.688667229 165.158646,1.47092161 L165.158646,14.6435933 C165.158646,19.5302596 162.317666,22.3632285 157.593793,22.3632285 C154.85827,22.3632285 152.734547,21.4087141 151.42905,19.6585225 C151.154562,19.2908853 150.730865,19.0641881 150.271267,19.0641881 C149.078332,19.0641881 148.419413,20.4303369 149.147889,21.3721741 C150.982914,23.7446644 153.994047,24.9452646 157.906424,24.9452646 C164.961569,24.9452646 168,20.2398068 168,14.6435933 L168,1.47092161 C168,0.688667229 167.363893,0.0544371497 166.579323,0.0544371497" id="tenisu13" fill="#06326C"></path>
        <path d="M18.3731845,12.5 C18.3731845,16.7228122 19.2954099,20.6172043 20.896879,23.6878851 C21.2073554,24.2827356 20.778763,25 20.1185405,25 L20.1185405,25 C19.8178815,25 19.5386982,24.8434604 19.3764037,24.5854831 C17.3699653,21.3942669 16.2799232,17.1457822 16.2799232,12.5 C16.2799232,7.8542178 17.3699653,3.60573311 19.3764037,0.414516856 C19.5386982,0.156539598 19.8178815,0 20.1185405,0 L20.1185405,0 C20.778763,0 21.2073554,0.717264439 20.896879,1.31211491 C19.2954099,4.38279567 18.3731845,8.2771878 18.3731845,12.5" id="tenisu14" stroke="#0068FF" stroke-width="1.5" fill="#0068FF"></path>
        <path d="M2.6268155,12.5 C2.6268155,8.2771878 1.70459015,4.38279567 0.10312097,1.31211491 C-0.20735543,0.717264439 0.221236992,0 0.881459534,0 L0.881459534,0 C1.1821185,0 1.46130182,0.156539598 1.6235963,0.414516856 C3.6300347,3.60573311 4.72007684,7.8542178 4.72007684,12.5 C4.72007684,17.1457822 3.6300347,21.3942669 1.6235963,24.5854831 C1.46130182,24.8434604 1.1821185,25 0.881459534,25 L0.881459534,25 C0.221236992,25 -0.20735543,24.2827356 0.10312097,23.6878851 C1.70459015,20.6172043 2.6268155,16.7228122 2.6268155,12.5" id="tenisu15" stroke="#0068FF" stroke-width="1.5" fill="#0068FF"></path>
    </g>
</svg>